<svg id="Layer_1" data-name="Layer 1" xmlns="http://www.w3.org/2000/svg" viewBox="0 0 837.99 494.81"><defs><style>.cls-1{fill:#fbb03b;}</style></defs><path d="M264,534.48,328,441q21.24,26.37,45.53,40.4t48.46,14q10.74,0,17.09-3.91t6.35-10.25q0-9.76-27.83-21c-4.07-1.62-7.25-2.93-9.52-3.9q-45.92-19-66.78-44.07T320.4,351.87q0-55.9,40.77-91.19T467.86,225.4q38.08,0,70.19,11.23a188.39,188.39,0,0,1,59,33.69L547,358q-21.74-19.05-39.43-28.32t-32.59-9.28q-9,0-14.53,4.27A13.68,13.68,0,0,0,454.92,336q0,12,32.23,25.63,8.53,3.66,13.43,5.86,41.74,18.81,59.08,42T577,468.32q0,56.16-43.58,93.63t-110,37.47A217.36,217.36,0,0,1,340.91,583Q300.38,566.47,264,534.48Z" transform="translate(-264 -104.61)"/><path d="M583.58,590.88,649.5,233.46H787.2q79.09,0,118.53,28.93t39.43,87q0,62.5-42.12,97.17T784.51,481.26h-51l-20,109.62ZM751.06,388h9.52q28.32,0,41.88-8.67T816,352.84q0-13.43-11.23-19.65T768.64,327h-6.1Z" transform="translate(-264 -104.61)"/><circle class="cls-1" cx="737.99" cy="100" r="100"/></svg>